<svg xmlns="http://www.w3.org/2000/svg" viewBox="0 0 240 64" role="img" aria-label="Donna milk tea logo">
  <rect x="10" y="20" width="28" height="4" rx="2" fill="#EAD9C6"/>
  <rect x="14" y="6" width="6" height="22" rx="3" transform="rotate(-18 14 6)" fill="#D2B48C"/>
  <rect x="10" y="24" width="28" height="30" rx="7" fill="#F3E6D6" stroke="#C79A6B" stroke-width="2"/>
  <rect x="12" y="30" width="24" height="18" rx="4" fill="#EBD2B4"/>
  <circle cx="18" cy="48" r="3" fill="#C79A6B"/>
  <circle cx="24" cy="50" r="3" fill="#C79A6B"/>
  <circle cx="30" cy="48" r="3" fill="#C79A6B"/>
  <path d="M48 22c3-6 10-8 14-4 4-4 11-2 14 4 3 6-2 11-14 20-12-9-17-14-14-20z" fill="#F2C7B3"/>
  <text x="84" y="38" font-family="Noto Serif TC, 'Times New Roman', serif" font-size="28" font-weight="700" fill="#5D4B42">
    Donna
  </text>
  <text x="84" y="54" font-family="Noto Sans TC, Arial, sans-serif" font-size="12" letter-spacing="2" fill="#A47B5C">
    MILK TEA
  </text>
</svg>
